<?xml version="1.0" standalone="no"?>
<!DOCTYPE svg PUBLIC "-//W3C//DTD SVG 20010904//EN"
 "http://www.w3.org/TR/2001/REC-SVG-20010904/DTD/svg10.dtd">
<svg version="1.0" xmlns="http://www.w3.org/2000/svg"
 width="300.000000pt" height="300.000000pt" viewBox="0 0 300.000000 300.000000"
 preserveAspectRatio="xMidYMid meet">

<g transform="translate(0.000000,300.000000) scale(0.100000,-0.100000)"
fill="#000000" stroke="none">
<path d="M0 2765 c0 -129 3 -235 8 -235 11 0 207 130 210 141 2 5 12 9 22 9
11 0 23 7 28 16 5 10 22 18 38 19 24 1 29 6 28 25 -1 22 0 22 14 4 39 -51 94
-187 116 -291 47 -211 128 -319 293 -389 32 -14 47 -23 34 -20 -14 3 -43 -5
-72 -20 -49 -24 -64 -38 -31 -28 15 5 15 4 -1 -6 -28 -18 -132 37 -199 104
-71 72 -116 150 -154 265 l-32 96 -58 18 c-33 10 -101 21 -151 24 l-93 6 0
-239 0 -239 118 -1 c86 -1 137 -7 195 -23 78 -21 210 -81 222 -101 4 -6 3 -9
-2 -8 -11 3 -90 -39 -98 -52 -4 -6 -28 -21 -54 -34 -26 -14 -53 -32 -61 -40
-8 -10 -21 -14 -34 -11 -21 6 -21 6 -1 -11 20 -16 19 -16 -5 -9 -58 16 -169
75 -223 119 l-57 46 2 -827 c3 -792 4 -828 21 -831 12 -3 20 4 24 17 4 17 10
20 32 14 14 -4 56 -8 93 -8 74 0 62 -9 -33 -24 -60 -10 -102 -34 -76 -44 6 -3
-5 -6 -25 -6 l-38 -1 0 -95 0 -95 599 0 599 0 17 36 c22 47 31 104 16 104 -17
0 -13 24 14 87 27 60 98 186 122 214 7 9 23 36 36 61 12 25 38 59 59 77 l36
32 53 -38 c70 -50 140 -124 192 -202 27 -42 43 -59 45 -49 8 43 97 -38 152
-137 21 -39 46 -97 55 -128 l16 -57 96 0 c80 0 94 2 89 15 -3 8 -1 15 5 15 6
0 7 5 4 10 -4 6 -11 8 -16 5 -5 -4 -10 0 -11 7 -3 30 -16 65 -39 111 -7 12 7
2 29 -22 33 -34 44 -41 55 -32 11 8 16 5 26 -15 6 -14 9 -29 6 -34 -3 -5 1
-10 7 -13 20 -7 2 -20 -27 -19 -15 0 -24 -5 -22 -12 2 -7 48 -12 132 -14 l129
-3 -28 30 c-20 20 -24 30 -14 34 22 7 68 -22 68 -43 0 -19 7 -20 213 -20 l212
1 -50 18 c-62 22 -118 51 -112 57 2 3 24 0 48 -5 24 -6 77 -11 117 -11 l72 0
0 34 0 34 -40 -9 c-56 -13 -203 -15 -284 -6 l-69 9 35 -36 c19 -20 39 -36 45
-36 5 0 18 -7 29 -16 18 -15 18 -15 -11 -9 -41 9 -171 93 -191 123 -24 37 -26
21 -4 -41 11 -31 20 -64 19 -74 0 -10 -6 -2 -13 17 -27 73 -66 138 -101 168
-26 23 -31 32 -18 32 9 0 33 -15 53 -34 42 -40 141 -76 208 -75 34 0 41 3 27
8 -50 20 -122 43 -142 46 -12 2 -32 13 -44 24 -13 12 -48 30 -78 42 -50 19
-62 20 -112 10 -76 -15 -133 -14 -176 4 -49 21 -119 79 -149 125 -28 41 -71
64 -202 106 -92 29 -112 41 -162 105 -27 35 -40 45 -40 32 0 -15 -4 -13 -24 9
-12 15 -25 26 -27 24 -2 -2 -5 9 -6 25 -1 16 2 29 6 29 9 0 46 68 46 86 0 6 9
19 19 29 15 15 16 20 5 24 -8 2 -17 8 -20 14 -17 26 -15 435 2 452 8 7 10 -1
7 -29 -4 -38 22 -113 44 -127 5 -3 -1 -23 -13 -44 l-22 -37 21 -17 c11 -9 24
-28 27 -43 4 -16 11 -28 15 -28 17 0 33 62 27 110 -5 44 -4 50 12 50 28 0 41
-22 48 -79 6 -50 5 -52 -33 -86 -34 -30 -35 -33 -11 -21 36 18 55 12 176 -48
88 -45 93 -46 88 -24 -3 13 -9 54 -12 91 l-7 68 42 40 c28 27 47 38 60 34 15
-5 20 3 29 45 19 90 12 122 -35 167 -20 19 -26 20 -38 8 -10 -10 -16 -11 -25
-2 -15 15 -15 18 21 96 l32 70 49 -1 c29 0 53 5 57 13 9 14 3 58 -11 75 -5 6
-6 14 -2 17 17 17 -16 3 -105 -46 -53 -29 -116 -61 -140 -72 -64 -28 -60 -36
6 -10 116 46 139 41 75 -15 -49 -43 -105 -66 -176 -73 -65 -6 -66 3 -5 34 70
36 34 31 -43 -6 -70 -33 -139 -46 -139 -26 0 6 51 43 113 84 61 41 123 88 137
103 15 18 17 23 5 12 -11 -9 -45 -30 -75 -48 -30 -18 -60 -40 -67 -50 -7 -10
-31 -25 -54 -34 -50 -20 -53 -17 -70 64 -15 71 -5 95 56 137 69 48 70 57 4 49
-50 -7 -52 -6 -34 8 17 14 18 17 5 26 -8 6 -26 8 -40 5 -122 -25 -132 -26
-146 -14 -22 18 11 37 87 47 46 6 58 11 44 16 -34 13 -50 23 -50 32 -1 5 -7
20 -15 34 -8 14 -14 29 -15 35 0 5 -9 11 -20 13 -32 6 -49 23 -33 33 10 7 9 9
-4 9 -10 0 -18 3 -18 8 0 14 69 62 90 62 12 0 63 39 123 93 121 111 172 147
208 147 15 0 40 7 55 15 37 19 69 19 98 0 21 -14 22 -20 15 -58 -4 -23 -16
-103 -28 -177 -11 -75 -24 -148 -30 -162 -7 -18 -7 -28 0 -30 6 -2 0 -16 -12
-32 -20 -26 -21 -29 -6 -38 10 -5 24 -22 32 -38 20 -38 34 -38 70 0 16 16 24
30 19 30 -6 0 -18 16 -28 36 -15 33 -16 52 -6 200 6 91 8 169 5 174 -3 5 -1
28 5 51 l11 41 42 -7 c23 -4 45 -10 49 -14 15 -14 30 -190 26 -301 l-5 -118
37 13 c44 16 188 40 195 33 3 -3 -21 -15 -52 -26 -32 -12 -67 -29 -78 -37 -11
-9 -15 -14 -8 -11 6 3 71 13 144 21 202 22 281 68 292 169 3 26 0 40 -12 47
-14 9 -14 10 2 5 10 -3 25 -6 33 -6 8 0 23 -9 35 -21 17 -17 19 -27 13 -65
l-6 -45 52 21 c28 11 68 29 88 40 l37 20 -70 -6 c-38 -4 -68 -4 -65 -1 3 2 52
29 110 59 l105 55 3 56 3 56 -38 -16 c-25 -10 -78 -17 -153 -19 -63 -3 -164
-6 -224 -8 -97 -3 -107 -2 -85 10 13 7 40 18 59 25 19 6 49 17 65 25 17 7 68
19 115 27 l85 13 -145 7 c-142 8 -180 4 -265 -28 -16 -5 -15 -3 5 13 33 28
132 76 226 111 103 38 218 93 179 85 -46 -9 -256 -33 -294 -34 -24 0 -32 4
-28 14 4 9 -3 16 -20 21 -24 6 -23 8 46 72 39 36 69 68 67 71 -3 2 5 13 17 23
38 31 11 21 -54 -21 -59 -38 -129 -65 -150 -58 -6 2 3 17 19 33 28 29 85 125
79 131 -2 2 -20 -5 -40 -16 -20 -11 -40 -20 -43 -20 -3 0 -3 28 1 63 l7 62
-49 -46 c-55 -52 -137 -119 -146 -119 -3 0 -29 -14 -58 -30 -41 -25 -50 -27
-44 -13 14 35 26 84 23 94 -2 6 -21 -12 -43 -39 -22 -27 -50 -57 -63 -66 l-23
-18 6 36 c5 24 3 36 -4 36 -6 0 -11 -4 -11 -8 0 -15 -73 -82 -89 -82 -27 0
-69 -50 -163 -195 -50 -77 -103 -153 -119 -170 -15 -16 -28 -34 -29 -40 0 -5
-3 -10 -7 -10 -5 0 -25 -17 -47 -37 -33 -31 -41 -35 -58 -25 -29 19 -31 49 -7
113 48 125 30 327 -40 467 -22 43 -33 73 -25 66 18 -15 84 -147 84 -169 0 -10
7 -20 15 -23 11 -5 15 -30 17 -114 l3 -108 19 40 c29 62 42 191 28 277 -22
128 -77 218 -188 308 l-62 50 -95 0 -96 0 29 -57 c16 -32 31 -76 34 -98 l6
-40 -15 28 c-9 15 -17 27 -19 27 -2 0 -1 -21 2 -46 6 -57 -12 -53 -23 3 -11
62 -27 113 -35 108 -4 -3 -8 1 -7 8 1 34 -4 48 -15 41 -8 -5 -9 -2 -5 9 5 14
0 17 -34 17 -29 0 -38 -3 -33 -12 6 -10 4 -10 -7 0 -8 8 -47 12 -113 12 l-99
0 59 -39 c66 -42 152 -127 197 -193 71 -104 107 -224 107 -361 0 -85 -7 -108
-35 -117 -31 -9 -54 -24 -49 -31 3 -5 -3 -9 -13 -9 -15 0 -16 -2 -3 -10 17
-12 -13 -7 -100 17 -132 36 -213 119 -227 233 -10 88 52 152 150 153 l50 1
-44 38 c-61 54 -190 139 -279 184 -67 34 -72 39 -50 44 14 4 33 3 42 -2 13 -6
16 -5 13 4 -3 8 21 28 58 50 l62 38 -382 0 -383 0 0 -235z m895 -930 c17 -10
57 -44 89 -74 l59 -56 -22 40 -23 40 33 -36 c19 -19 58 -63 88 -98 51 -59 106
-104 230 -191 28 -19 51 -39 51 -43 0 -20 -37 -17 -97 6 -55 22 -63 23 -49 8
16 -18 15 -18 -31 -14 -95 8 -113 14 -173 60 -70 52 -68 70 5 48 27 -8 51 -13
52 -11 2 2 -12 13 -32 24 -19 12 -35 29 -35 38 0 10 -5 14 -15 10 -14 -5 -95
39 -95 51 0 5 15 -3 53 -30 16 -10 30 -17 33 -14 2 2 -6 11 -20 20 -50 33
-126 120 -126 145 0 4 -15 24 -32 43 -18 20 -34 40 -35 46 -4 17 59 9 92 -12z
m486 -166 c37 -18 40 -23 34 -47 -4 -15 -10 -52 -13 -82 -8 -63 -18 -66 -78
-25 -20 14 -40 22 -45 19 -5 -3 -9 0 -9 6 0 7 -7 9 -16 6 -8 -3 -13 -2 -10 3
3 5 -1 12 -10 15 -13 5 -14 9 -4 21 16 19 37 19 74 0 36 -19 46 -19 76 4 l24
19 -37 34 c-56 52 -51 61 14 27z m146 -15 c21 -6 21 -7 5 -40 -20 -39 -29 -43
-34 -11 -2 13 -10 22 -20 22 -24 0 -35 15 -18 25 17 11 36 12 67 4z m26 -156
c5 -43 4 -48 -14 -48 -17 0 -20 6 -17 32 3 30 0 33 -34 41 -21 5 -38 13 -38
19 0 5 8 7 19 3 10 -3 29 -1 42 4 31 12 36 6 42 -51z m-1213 -167 c0 -32 -3
-42 -10 -31 -6 10 -10 -5 -13 -50 -2 -49 -4 -40 -5 37 -2 87 0 102 13 97 10
-4 15 -20 15 -53z m1208 5 c4 -34 -13 -56 -44 -56 -50 0 -76 72 -32 89 37 14
73 -2 76 -33z m362 14 c0 -5 -2 -10 -4 -10 -3 0 -8 5 -11 10 -3 6 -1 10 4 10
6 0 11 -4 11 -10z m-105 -60 c19 0 90 22 148 45 13 6 20 -1 32 -29 17 -40 20
-80 5 -71 -5 3 -14 -13 -20 -35 -12 -45 -17 -47 -51 -22 -13 10 -60 24 -104
31 -44 7 -83 18 -86 23 -4 6 -3 24 2 40 6 23 4 32 -12 46 -36 31 -19 32 23 2
22 -16 51 -30 63 -30z m-581 -15 c-7 -26 -51 -65 -72 -65 -22 1 -62 30 -41 31
8 0 6 4 -6 9 l-20 9 20 1 20 1 -20 9 c-17 7 -17 9 -2 9 9 1 17 5 17 10 0 4 25
8 55 7 50 -1 54 -3 49 -21z m-637 -32 c-14 -21 -47 -58 -73 -83 -27 -25 -37
-32 -24 -17 14 16 24 29 22 30 -2 1 -1 9 2 17 14 45 14 45 15 28 1 -10 6 -18
11 -18 6 0 9 4 8 8 -3 9 54 81 60 76 2 -1 -8 -19 -21 -41z m-249 -187 c14 5
13 3 -2 -10 -11 -9 -22 -16 -25 -16 -3 0 -4 26 -1 57 l5 58 3 -47 c3 -39 6
-46 20 -42z m1591 -30 c1 -43 -8 -26 -13 25 -4 31 -2 38 4 24 5 -11 9 -33 9
-49z m-410 -98 c1 -39 -14 -57 -32 -39 -7 7 -6 31 3 83 l14 73 7 -40 c4 -22 8
-57 8 -77z m-242 48 c-3 -8 1 -17 10 -20 8 -4 13 -13 10 -21 -4 -9 -1 -12 8
-8 10 3 21 -7 32 -28 22 -39 62 -81 73 -74 5 3 17 -5 27 -18 10 -13 25 -26 32
-28 8 -3 20 -24 27 -48 12 -40 11 -46 -9 -77 -24 -36 -40 -45 -31 -16 3 10 -7
3 -25 -15 -17 -18 -33 -33 -37 -33 -3 0 -36 -20 -73 -45 -73 -49 -83 -53 -74
-30 12 32 -70 -19 -177 -108 -124 -104 -183 -140 -267 -161 -34 -9 -70 -19
-79 -23 -12 -4 -15 -3 -10 6 9 13 -3 11 -124 -21 -95 -25 -95 -25 -93 -10 4
16 5 16 -54 -13 -105 -50 -170 -66 -236 -59 -34 4 -57 9 -52 10 118 34 171 55
248 101 97 58 178 119 175 131 -2 4 28 36 66 72 37 36 82 85 98 110 29 44 28
43 -27 -15 -71 -74 -63 -61 53 86 129 164 191 215 392 323 87 47 127 58 117
32z m-909 -65 c-13 -11 -51 -31 -83 -46 -33 -14 -66 -32 -75 -39 -8 -8 -28
-16 -45 -18 -16 -3 -24 -3 -17 -1 7 3 11 12 10 21 -2 11 3 16 14 14 9 -1 20 3
24 9 5 8 3 9 -6 4 -8 -5 -11 -4 -6 3 4 6 14 8 23 5 10 -4 14 -2 10 4 -4 6 7
17 26 25 17 8 43 20 57 26 14 6 40 11 59 11 l34 1 -25 -19z m331 -695 c-8 -8
-113 -45 -117 -42 -2 2 21 13 50 25 51 19 76 26 67 17z m-160 -60 c-10 -9 -89
-46 -89 -41 0 6 72 44 84 45 5 0 7 -2 5 -4z"/>
<path d="M1268 943 c7 -3 16 -2 19 1 4 3 -2 6 -13 5 -11 0 -14 -3 -6 -6z"/>
<path d="M844 330 c-5 -5 -27 -16 -49 -24 -22 -8 -33 -15 -25 -15 8 0 38 10
65 23 28 14 43 25 35 25 -9 1 -20 -3 -26 -9z"/>
<path d="M1405 2977 c17 -12 53 -42 80 -67 39 -34 43 -37 20 -10 -50 57 -99
100 -115 99 -9 0 -3 -9 15 -22z"/>
<path d="M1597 2988 c58 -73 90 -121 109 -163 13 -27 23 -43 23 -35 1 21 -55
138 -85 178 -14 17 -32 32 -41 32 -11 0 -13 -4 -6 -12z"/>
<path d="M1731 2754 c0 -11 3 -14 6 -6 3 7 2 16 -1 19 -3 4 -6 -2 -5 -13z"/>
<path d="M2920 2404 c-36 -19 -54 -33 -40 -30 14 3 32 6 41 6 9 0 32 13 50 30
44 39 29 37 -51 -6z"/>
<path d="M2955 1914 c-58 -39 -58 -39 -9 -35 45 3 59 15 52 46 -2 13 -10 11
-43 -11z"/>
<path d="M489 1893 c-13 -16 -12 -17 4 -4 9 7 17 15 17 17 0 8 -8 3 -21 -13z"/>
<path d="M2452 1747 c-60 -25 -153 -96 -172 -131 -11 -22 -8 -33 33 -108 26
-46 50 -89 55 -96 6 -9 27 15 71 82 64 97 87 153 93 227 4 53 -6 56 -80 26z"/>
<path d="M2772 1725 c-36 -11 -122 -61 -122 -70 0 -6 171 46 211 64 l44 21
-45 -1 c-25 0 -64 -6 -88 -14z"/>
<path d="M2959 1535 c-14 -8 -82 -33 -151 -55 l-126 -41 -6 -82 c-3 -45 -10
-104 -15 -132 -7 -42 -9 -29 -10 79 -1 117 -3 128 -18 123 -128 -36 -226 -67
-230 -71 -12 -12 93 -162 168 -239 l78 -82 1 50 1 50 12 -35 c22 -60 42 -100
49 -100 5 0 10 0 13 0 3 1 13 -6 21 -15 9 -8 21 -15 28 -15 7 0 21 -9 31 -20
10 -11 23 -20 29 -20 15 0 157 -116 150 -123 -3 -3 -1 -8 5 -12 8 -4 11 107
11 374 0 210 -3 381 -7 381 -5 -1 -20 -7 -34 -15z"/>
<path d="M2160 1485 c0 -11 4 -70 10 -132 8 -99 13 -120 47 -190 49 -99 64
-124 84 -143 9 -8 14 -21 11 -29 -3 -8 0 -11 7 -7 6 4 9 2 6 -6 -3 -7 19 -37
49 -67 30 -30 52 -59 49 -66 -2 -7 1 -16 7 -20 9 -6 9 -9 -1 -15 -9 -6 -10
-12 -1 -22 18 -22 44 -153 45 -231 2 -60 5 -74 22 -85 18 -12 17 -13 -14 -8
-29 5 -32 4 -26 -12 12 -28 14 -63 4 -56 -5 3 -7 10 -4 15 4 5 2 9 -4 9 -5 0
-22 11 -37 25 -15 14 -32 25 -39 25 -7 0 -25 12 -40 27 -22 22 -25 23 -17 7
20 -38 137 -139 194 -166 64 -32 166 -58 218 -57 l35 1 -33 11 -34 10 34 18
33 18 -47 1 c-26 0 -59 5 -75 11 -52 19 -113 92 -113 134 0 9 5 13 10 10 6 -3
10 1 10 10 0 9 -4 13 -10 10 -5 -3 -7 0 -4 9 7 18 -14 59 -26 51 -5 -3 -8 3
-7 14 0 11 5 17 10 14 5 -3 6 4 3 16 -3 11 -9 30 -12 41 -10 37 14 20 30 -21
16 -39 18 -41 32 -23 13 17 13 17 4 -9 -12 -35 -13 -33 3 -49 7 -7 25 -30 41
-50 l28 -38 17 23 c53 68 54 124 7 215 -42 79 -75 117 -174 195 -37 30 -76 65
-87 77 l-20 23 33 -17 c44 -23 40 -14 -8 18 -38 25 -69 61 -74 88 -2 7 -8 26
-14 41 -7 16 -12 33 -12 38 0 6 -7 24 -15 42 -13 25 -6 21 32 -23 26 -30 74
-82 106 -115 l58 -60 -63 97 c-35 53 -66 94 -70 92 -10 -6 -138 173 -138 194
0 13 -38 41 -46 34 -4 -4 -4 4 -1 18 3 14 2 32 -3 40 -8 12 -10 11 -10 -5z"/>
<path d="M2170 976 c0 -11 22 -54 49 -95 28 -42 65 -107 83 -146 28 -59 33
-66 36 -44 4 38 -46 144 -99 209 -25 30 -51 64 -57 75 -11 20 -11 20 -12 1z"/>
<path d="M1619 893 c-13 -16 -12 -17 4 -4 16 13 21 21 13 21 -2 0 -10 -8 -17
-17z"/>
<path d="M2372 663 c3 -76 5 -85 32 -110 16 -16 25 -22 21 -15 -4 7 -9 34 -11
60 -2 26 -12 70 -24 97 l-20 50 2 -82z"/>
<path d="M2705 505 c-22 -13 -35 -25 -30 -25 6 0 4 -4 -4 -9 -17 -11 -4 -34
16 -27 8 3 12 2 9 -3 -3 -5 1 -14 9 -21 8 -7 15 -9 15 -4 0 5 5 2 10 -6 7 -11
10 -3 10 30 0 33 3 41 10 30 9 -13 10 -13 9 0 -1 8 -4 25 -7 37 l-7 23 -40
-25z"/>
<path d="M2927 406 c-3 -50 -3 -93 -1 -95 1 -2 18 5 36 16 30 17 33 24 36 75
3 54 2 56 -31 76 l-34 20 -6 -92z"/>
<path d="M2599 472 c13 -24 73 -83 79 -77 2 2 -17 25 -43 50 -25 25 -42 38
-36 27z"/>
<path d="M2550 477 c-1 -24 55 -97 74 -97 5 0 -4 15 -21 33 -17 17 -35 41 -41
52 -6 11 -12 16 -12 12z"/>
<path d="M2310 361 l-24 -7 34 -26 c19 -14 49 -28 65 -31 17 -4 41 -10 54 -13
l25 -7 -22 23 c-12 13 -22 27 -22 31 0 6 -76 41 -83 38 -1 -1 -13 -4 -27 -8z"/>
<path d="M2084 343 c28 -34 97 -63 149 -63 25 0 49 5 52 10 7 11 -42 33 -59
26 -6 -2 -3 -5 7 -5 9 -1 17 -5 17 -11 0 -17 -30 -11 -68 15 -20 14 -48 25
-62 25 -14 0 -32 6 -40 13 -8 6 -6 2 4 -10z"/>
<path d="M1371 228 c-1 -10 -7 -32 -15 -50 -16 -41 -56 -160 -56 -170 0 -5 4
-8 9 -8 23 0 81 199 68 232 -4 9 -6 8 -6 -4z"/>
<path d="M2738 183 c6 -2 18 -2 25 0 6 3 1 5 -13 5 -14 0 -19 -2 -12 -5z"/>
<path d="M2440 56 c0 -2 8 -10 18 -17 15 -13 16 -12 3 4 -13 16 -21 21 -21 13z"/>
</g>
</svg>
